<svg width="56" height="56" viewBox="0 0 56 56" fill="none" xmlns="http://www.w3.org/2000/svg">
    <rect x="2" y="2" width="52" height="52" rx="26" stroke="#750000" stroke-width="4"/>
    <path fill-rule="evenodd" clip-rule="evenodd" d="M21.6087 39.4014C20.8347 40.1895 19.5685 40.2009 18.7804 39.4269L8.59858 29.4269C8.21569 29.0508 8 28.5367 8 28C8 27.4633 8.21569 26.9492 8.59858 26.5731L18.7804 16.5731C19.5685 15.7991 20.8347 15.8105 21.6087 16.5986C22.3827 17.3866 22.3713 18.6529 21.5832 19.4269L14.8906 26L46 26C47.1046 26 48 26.8954 48 28C48 29.1046 47.1046 30 46 30L14.8906 30L21.5832 36.5731C22.3713 37.3471 22.3827 38.6134 21.6087 39.4014Z" fill="#750000"/>
</svg>
