<svg width="32" height="32" viewBox="0 0 32 32" fill="none" xmlns="http://www.w3.org/2000/svg">
    <path d="M4.88518 7.0152L0 2.13153L2.13153 0L7.0152 4.88518H29.9754C30.2102 4.88517 30.4418 4.94004 30.6516 5.04541C30.8614 5.15079 31.0437 5.30375 31.1839 5.4921C31.3241 5.68044 31.4183 5.89895 31.4591 6.13019C31.4998 6.36142 31.4859 6.59898 31.4185 6.82389L27.8032 18.8749C27.7102 19.1854 27.5196 19.4575 27.2596 19.651C26.9996 19.8445 26.6842 19.949 26.3601 19.949H7.89794V22.9617H24.4681V25.9745H6.39156C5.99205 25.9745 5.60889 25.8158 5.32639 25.5333C5.04389 25.2508 4.88518 24.8676 4.88518 24.4681V7.0152ZM7.89794 7.89794V16.9362H25.2394L27.9508 7.89794H7.89794ZM7.14475 32C6.54548 32 5.97075 31.7619 5.547 31.3382C5.12325 30.9144 4.88518 30.3397 4.88518 29.7404C4.88518 29.1412 5.12325 28.5664 5.547 28.1427C5.97075 27.7189 6.54548 27.4809 7.14475 27.4809C7.74403 27.4809 8.31876 27.7189 8.74251 28.1427C9.16626 28.5664 9.40432 29.1412 9.40432 29.7404C9.40432 30.3397 9.16626 30.9144 8.74251 31.3382C8.31876 31.7619 7.74403 32 7.14475 32ZM25.2213 32C24.622 32 24.0473 31.7619 23.6235 31.3382C23.1998 30.9144 22.9617 30.3397 22.9617 29.7404C22.9617 29.1412 23.1998 28.5664 23.6235 28.1427C24.0473 27.7189 24.622 27.4809 25.2213 27.4809C25.8206 27.4809 26.3953 27.7189 26.819 28.1427C27.2428 28.5664 27.4809 29.1412 27.4809 29.7404C27.4809 30.3397 27.2428 30.9144 26.819 31.3382C26.3953 31.7619 25.8206 32 25.2213 32Z" fill="#750000"/>
</svg>
