<svg width="32" height="32" viewBox="0 0 32 32" fill="none" xmlns="http://www.w3.org/2000/svg">
    <path fill-rule="evenodd" clip-rule="evenodd" d="M10.4615 5.95206C7.98564 5.95206 5.84615 8.29169 5.84615 11.358C5.84615 14.97 8.32796 18.6141 11.0584 21.4876C13.0673 23.6017 15.089 25.1729 16 25.844C16.911 25.1729 18.9327 23.6017 20.9416 21.4876C23.672 18.6141 26.1538 14.97 26.1538 11.358C26.1538 8.29169 24.0144 5.95206 21.5385 5.95206C21.0753 5.95206 20.3333 6.03659 19.5722 6.3768C18.5283 6.8434 17.4038 7.80449 16.8929 9.86499C16.7865 10.2942 16.4196 10.5935 16 10.5935C15.5804 10.5935 15.2135 10.2942 15.1071 9.86499C14.5962 7.80449 13.4717 6.8434 12.4278 6.3768C11.6667 6.03659 10.9247 5.95206 10.4615 5.95206ZM13.1536 4.58191C12.3233 4.19497 11.4097 4 10.4615 4C6.81982 4 4 7.37498 4 11.358C4 15.8155 6.98454 19.9545 9.75611 22.8712C12.4231 25.6779 15.1017 27.5674 15.4596 27.8155C15.6183 27.9362 15.809 28 16 28C16.191 28 16.3817 27.9362 16.5404 27.8155C16.8983 27.5674 19.5768 25.6779 22.2439 22.8712C25.0155 19.9545 28 15.8155 28 11.358C28 7.37498 25.1802 4 21.5385 4C20.5903 4 19.6767 4.19497 18.8464 4.58191C17.821 5.04172 16.7758 5.83643 16 7.14183C15.2242 5.83643 14.179 5.04172 13.1536 4.58191Z" fill="#750000" stroke="#750000" stroke-linecap="round" stroke-linejoin="round"/>
</svg>
