<svg width="32" height="32" viewBox="0 0 32 32" fill="none" xmlns="http://www.w3.org/2000/svg">
    <g clip-path="url(#clip0_4_63)">
        <path d="M3.19995 32C3.19995 28.7669 4.4843 25.6662 6.77046 23.38C9.05662 21.0939 12.1573 19.8095 15.3904 19.8095C18.6235 19.8095 21.7242 21.0939 24.0104 23.38C26.2965 25.6662 27.5809 28.7669 27.5809 32H24.5333C24.5333 29.5752 23.57 27.2496 21.8554 25.535C20.1408 23.8204 17.8153 22.8571 15.3904 22.8571C12.9656 22.8571 10.6401 23.8204 8.92545 25.535C7.21083 27.2496 6.24757 29.5752 6.24757 32H3.19995ZM15.3904 18.2857C10.339 18.2857 6.24757 14.1943 6.24757 9.14286C6.24757 4.09143 10.339 0 15.3904 0C20.4419 0 24.5333 4.09143 24.5333 9.14286C24.5333 14.1943 20.4419 18.2857 15.3904 18.2857ZM15.3904 15.2381C18.758 15.2381 21.4857 12.5105 21.4857 9.14286C21.4857 5.77524 18.758 3.04762 15.3904 3.04762C12.0228 3.04762 9.29519 5.77524 9.29519 9.14286C9.29519 12.5105 12.0228 15.2381 15.3904 15.2381Z" fill="#750000"/>
    </g>
    <defs>
        <clipPath id="clip0_4_63">
            <rect width="32" height="32" fill="white"/>
        </clipPath>
    </defs>
</svg>
