<svg width="24" height="24" viewBox="0 0 24 24" fill="none" xmlns="http://www.w3.org/2000/svg">
    <path fill-rule="evenodd" clip-rule="evenodd" d="M6.46154 1.95206C3.98564 1.95206 1.84615 4.29169 1.84615 7.35801C1.84615 10.97 4.32796 14.6141 7.05845 17.4876C9.06732 19.6017 11.089 21.1729 12 21.844C12.911 21.1729 14.9327 19.6017 16.9416 17.4876C19.672 14.6141 22.1538 10.97 22.1538 7.35801C22.1538 4.29169 20.0144 1.95206 17.5385 1.95206C17.0753 1.95206 16.3333 2.03659 15.5722 2.3768C14.5283 2.8434 13.4038 3.80449 12.8929 5.86499C12.7865 6.2942 12.4196 6.5935 12 6.5935C11.5804 6.5935 11.2135 6.2942 11.1071 5.86499C10.5962 3.80449 9.47171 2.8434 8.4278 2.3768C7.66666 2.03659 6.92475 1.95206 6.46154 1.95206ZM9.15359 0.581906C8.32327 0.194966 7.40971 0 6.46154 0C2.81982 0 0 3.37498 0 7.35801C0 11.8155 2.98454 15.9545 5.75611 18.8712C8.42313 21.6779 11.1017 23.5674 11.4596 23.8155C11.6183 23.9362 11.809 24 12 24C12.191 24 12.3817 23.9362 12.5404 23.8155C12.8983 23.5674 15.5768 21.6779 18.2439 18.8712C21.0155 15.9545 24 11.8155 24 7.35801C24 3.37498 21.1802 0 17.5385 0C16.5903 0 15.6767 0.194966 14.8464 0.581906C13.821 1.04172 12.7758 1.83643 12 3.14183C11.2242 1.83643 10.179 1.04172 9.15359 0.581906Z" fill="#D9D9D9"/>
</svg>
